<svg xmlns="http://www.w3.org/2000/svg" version="1.1" xmlns:xlink="http://www.w3.org/1999/xlink" xmlns:svgjs="http://svgjs.dev/svgjs" viewBox="0 0 1920 1080" class="overflow-hidden rounded-md drop-shadow-lg transition duration-300" style="overflow: hidden; height: 85vh;"><rect width="1920" height="1080" fill="#fbbab0"/><g clip-path="url(&quot;#SvgjsClipPath2884&quot;)"><g transform="matrix(0.21943034468302663,1.1288712609648135,-1.1288712609648135,0.21943034468302663,1358.9373500252937,-662.2087966550555)"><path d="M0,-1080C0,-1002.8571428571429,0,-771.4285714285716,0,-617.1428571428572C0,-462.85714285714295,0,-308.57142857142867,0,-154.28571428571433C0,-2.842170943040401e-14,0,154.28571428571428,0,308.57142857142856C0,462.85714285714283,0,617.1428571428571,0,771.4285714285713C0,925.7142857142856,0,1080,0,1234.2857142857142C0,1388.5714285714284,0,1542.8571428571427,0,1697.1428571428569C0,1851.428571428571,0,2082.8571428571427,0,2160L 1920 2160 L 1920 -1080 Z" fill="url(&quot;#SvgjsLinearGradient2881&quot;)"/><path d="M640,-1080C640,-972,640,-648,640,-432C640,-216,640,0,640,216C640,432,640,648,640,864C640,1080,640,1296,640,1512C640,1728,640,2052,640,2160L 1920 2160 L 1920 -1080 Z" fill="url(&quot;#SvgjsLinearGradient2882&quot;)"/><path d="M1280,-1080C1280,-972,1280,-648,1280,-432C1280,-216,1280,0,1280,216C1280,432,1280,648,1280,864C1280,1080,1280,1296,1280,1512C1280,1728,1280,2052,1280,2160L 1920 2160 L 1920 -1080 Z" fill="url(&quot;#SvgjsLinearGradient2883&quot;)"/></g></g><defs><linearGradient x1="0.1" y1="0" x2="0" y2="1" id="SvgjsLinearGradient2881"><stop stop-color="#fbbab0" offset="0"/><stop stop-color="#fbb0b2" offset="0"/></linearGradient><linearGradient x1="0.1" y1="0" x2="0" y2="1" id="SvgjsLinearGradient2882"><stop stop-color="#fdd6d0" offset="0"/><stop stop-color="#fdd0d1" offset="0.3333333333333333"/></linearGradient><linearGradient x1="0.1" y1="0" x2="0" y2="1" id="SvgjsLinearGradient2883"><stop stop-color="#fef2f0" offset="0"/><stop stop-color="#fef0f0" offset="0.6666666666666666"/></linearGradient><clipPath id="SvgjsClipPath2884"><rect width="1920" height="1080"/></clipPath></defs></svg>